<mxfile host="Electron" agent="Mozilla/5.0 (Windows NT 10.0; Win64; x64) AppleWebKit/537.36 (KHTML, like Gecko) draw.io/24.7.8 Chrome/128.0.6613.36 Electron/32.0.1 Safari/537.36" version="24.7.8">
  <diagram name="Strona-1" id="m5g2Cmcjoh_5LRsiQ-xc">
    <mxGraphModel dx="615" dy="2349" grid="1" gridSize="10" guides="1" tooltips="1" connect="1" arrows="1" fold="1" page="1" pageScale="1" pageWidth="827" pageHeight="1169" math="0" shadow="0">
      <root>
        <mxCell id="0" />
        <mxCell id="1" parent="0" />
        <mxCell id="6ug0FFORpO-GTMWJlnLh-1" value="Web Controller" style="html=1;dropTarget=0;whiteSpace=wrap;" parent="1" vertex="1">
          <mxGeometry x="827" y="-870" width="180" height="90" as="geometry" />
        </mxCell>
        <mxCell id="6ug0FFORpO-GTMWJlnLh-2" value="" style="shape=module;jettyWidth=8;jettyHeight=4;" parent="6ug0FFORpO-GTMWJlnLh-1" vertex="1">
          <mxGeometry x="1" width="20" height="20" relative="1" as="geometry">
            <mxPoint x="-27" y="7" as="offset" />
          </mxGeometry>
        </mxCell>
        <mxCell id="6ug0FFORpO-GTMWJlnLh-5" value="" style="rounded=0;orthogonalLoop=1;jettySize=auto;html=1;endArrow=halfCircle;endFill=0;endSize=6;strokeWidth=1;sketch=0;exitX=1;exitY=0.5;exitDx=0;exitDy=0;" parent="1" source="6ug0FFORpO-GTMWJlnLh-1" target="6ug0FFORpO-GTMWJlnLh-7" edge="1">
          <mxGeometry relative="1" as="geometry">
            <mxPoint x="997" y="-950" as="sourcePoint" />
          </mxGeometry>
        </mxCell>
        <mxCell id="6ug0FFORpO-GTMWJlnLh-6" value="" style="rounded=0;orthogonalLoop=1;jettySize=auto;html=1;endArrow=oval;endFill=0;sketch=0;sourcePerimeterSpacing=0;targetPerimeterSpacing=0;endSize=10;exitX=0;exitY=0.5;exitDx=0;exitDy=0;" parent="1" source="6ug0FFORpO-GTMWJlnLh-24" target="6ug0FFORpO-GTMWJlnLh-7" edge="1">
          <mxGeometry relative="1" as="geometry">
            <mxPoint x="1120" y="-825" as="sourcePoint" />
          </mxGeometry>
        </mxCell>
        <mxCell id="6ug0FFORpO-GTMWJlnLh-7" value="" style="ellipse;whiteSpace=wrap;html=1;align=center;aspect=fixed;fillColor=none;strokeColor=none;resizable=0;perimeter=centerPerimeter;rotatable=0;allowArrows=0;points=[];outlineConnect=1;" parent="1" vertex="1">
          <mxGeometry x="1077" y="-830" width="10" height="10" as="geometry" />
        </mxCell>
        <mxCell id="6ug0FFORpO-GTMWJlnLh-10" value="" style="rounded=0;orthogonalLoop=1;jettySize=auto;html=1;endArrow=oval;endFill=0;sketch=0;sourcePerimeterSpacing=0;targetPerimeterSpacing=0;endSize=10;exitX=0.5;exitY=1;exitDx=0;exitDy=0;" parent="1" source="6ug0FFORpO-GTMWJlnLh-24" target="6ug0FFORpO-GTMWJlnLh-11" edge="1">
          <mxGeometry relative="1" as="geometry">
            <mxPoint x="1247" y="-760" as="sourcePoint" />
          </mxGeometry>
        </mxCell>
        <mxCell id="6ug0FFORpO-GTMWJlnLh-11" value="" style="ellipse;whiteSpace=wrap;html=1;align=center;aspect=fixed;fillColor=none;strokeColor=none;resizable=0;perimeter=centerPerimeter;rotatable=0;allowArrows=0;points=[];outlineConnect=1;" parent="1" vertex="1">
          <mxGeometry x="1242" y="-720" width="10" height="10" as="geometry" />
        </mxCell>
        <mxCell id="6ug0FFORpO-GTMWJlnLh-12" value="&lt;span style=&quot;color: rgba(0, 0, 0, 0); font-family: monospace; font-size: 0px; text-align: start; text-wrap: nowrap;&quot;&gt;%3CmxGraphModel%3E%3Croot%3E%3CmxCell%20id%3D%220%22%2F%3E%3CmxCell%20id%3D%221%22%20parent%3D%220%22%2F%3E%3CmxCell%20id%3D%222%22%20value%3D%22powiadomienie%22%20style%3D%22text%3Bhtml%3D1%3Balign%3Dcenter%3BverticalAlign%3Dmiddle%3BwhiteSpace%3Dwrap%3Brounded%3D0%3B%22%20vertex%3D%221%22%20parent%3D%221%22%3E%3CmxGeometry%20x%3D%221455%22%20y%3D%2230%22%20width%3D%2260%22%20height%3D%2230%22%20as%3D%22geometry%22%2F%3E%3C%2FmxCell%3E%3C%2Froot%3E%3C%2FmxGraphModel%3E&lt;/span&gt;" style="text;html=1;align=center;verticalAlign=middle;whiteSpace=wrap;rounded=0;" parent="1" vertex="1">
          <mxGeometry x="1260" y="-730" width="40" height="30" as="geometry" />
        </mxCell>
        <mxCell id="6ug0FFORpO-GTMWJlnLh-17" value="komunikat" style="text;html=1;align=center;verticalAlign=middle;whiteSpace=wrap;rounded=0;" parent="1" vertex="1">
          <mxGeometry x="1052" y="-870" width="60" height="30" as="geometry" />
        </mxCell>
        <mxCell id="6ug0FFORpO-GTMWJlnLh-18" value="&lt;font style=&quot;font-size: 20px;&quot;&gt;Projektanci:&lt;/font&gt;&lt;div style=&quot;font-size: 20px;&quot;&gt;&lt;font style=&quot;font-size: 20px;&quot;&gt;• Kacper Komorowski&amp;nbsp;&lt;br&gt;•&amp;nbsp;&lt;/font&gt;&lt;span style=&quot;background-color: initial;&quot;&gt;Patryk Augustyniak&lt;/span&gt;&lt;/div&gt;" style="shape=note;whiteSpace=wrap;html=1;backgroundOutline=1;darkOpacity=0.05;fillColor=#fff2cc;strokeColor=#d6b656;align=left;spacingLeft=15;spacingBottom=0;" parent="1" vertex="1">
          <mxGeometry x="827" y="-1169" width="240" height="180" as="geometry" />
        </mxCell>
        <mxCell id="6ug0FFORpO-GTMWJlnLh-19" value="Założenia:&lt;br&gt;&lt;div&gt;• moduł pozowoli na wysyłanie komunikatów - wiadomości wysyłanych przez przedstawicieli władz i organizacje pomocowe do określonych grup odbiorców&lt;br&gt;• moduł umożliwi wysyłanie powiadomień przy zajściu określonych sytuacji w systemie&amp;nbsp;&lt;br&gt;&lt;/div&gt;&lt;br&gt;Moduł obejmuje część interfejsu graficznego umożliwającego tworzenie komunikatów i wybieranie grup odbiorców oraz implementację tej fukcji z uwzględniem zdefiniowania odpowiednich punktów końcowych i wywołań w kontrolerze. Ponadto moduł odpowiada za utrwalanie danych." style="shape=note;size=20;whiteSpace=wrap;html=1;fillColor=#fff2cc;strokeColor=#d6b656;align=left;spacingLeft=5;" parent="1" vertex="1">
          <mxGeometry x="1170" y="-1169" width="484" height="209" as="geometry" />
        </mxCell>
        <mxCell id="6ug0FFORpO-GTMWJlnLh-20" value="" style="endArrow=none;dashed=1;html=1;rounded=0;exitX=0;exitY=0;exitDx=115;exitDy=0;exitPerimeter=0;entryX=0;entryY=1;entryDx=0;entryDy=0;" parent="1" source="6ug0FFORpO-GTMWJlnLh-23" target="6ug0FFORpO-GTMWJlnLh-12" edge="1">
          <mxGeometry width="50" height="50" relative="1" as="geometry">
            <mxPoint x="1350" y="-640" as="sourcePoint" />
            <mxPoint x="1220" y="-480" as="targetPoint" />
          </mxGeometry>
        </mxCell>
        <mxCell id="6ug0FFORpO-GTMWJlnLh-21" value="" style="endArrow=none;dashed=1;html=1;rounded=0;exitX=0.5;exitY=0;exitDx=0;exitDy=0;exitPerimeter=0;" parent="1" source="6ug0FFORpO-GTMWJlnLh-22" edge="1">
          <mxGeometry width="50" height="50" relative="1" as="geometry">
            <mxPoint x="1040" y="-690" as="sourcePoint" />
            <mxPoint x="1080" y="-810" as="targetPoint" />
          </mxGeometry>
        </mxCell>
        <mxCell id="6ug0FFORpO-GTMWJlnLh-22" value="Interfejs umożliwający tworzenie komunikatów przez GUI." style="shape=note;size=20;whiteSpace=wrap;html=1;fillColor=#fff2cc;strokeColor=#d6b656;align=left;spacingLeft=5;" parent="1" vertex="1">
          <mxGeometry x="870" y="-590" width="250" height="80" as="geometry" />
        </mxCell>
        <mxCell id="6ug0FFORpO-GTMWJlnLh-23" value="Interfejs umożliwający tworzenie powiadomień." style="shape=note;size=20;whiteSpace=wrap;html=1;fillColor=#fff2cc;strokeColor=#d6b656;align=left;spacingLeft=5;" parent="1" vertex="1">
          <mxGeometry x="1300" y="-560" width="250" height="80" as="geometry" />
        </mxCell>
        <mxCell id="6ug0FFORpO-GTMWJlnLh-24" value="Moduł komunikacji" style="html=1;dropTarget=0;whiteSpace=wrap;" parent="1" vertex="1">
          <mxGeometry x="1157" y="-870" width="180" height="90" as="geometry" />
        </mxCell>
        <mxCell id="6ug0FFORpO-GTMWJlnLh-25" value="" style="shape=module;jettyWidth=8;jettyHeight=4;" parent="6ug0FFORpO-GTMWJlnLh-24" vertex="1">
          <mxGeometry x="1" width="20" height="20" relative="1" as="geometry">
            <mxPoint x="-27" y="7" as="offset" />
          </mxGeometry>
        </mxCell>
        <mxCell id="6ug0FFORpO-GTMWJlnLh-26" value="Repozytorium powiadomień i komunikatów" style="html=1;dropTarget=0;whiteSpace=wrap;" parent="1" vertex="1">
          <mxGeometry x="1474" y="-870" width="180" height="90" as="geometry" />
        </mxCell>
        <mxCell id="6ug0FFORpO-GTMWJlnLh-27" value="" style="shape=module;jettyWidth=8;jettyHeight=4;" parent="6ug0FFORpO-GTMWJlnLh-26" vertex="1">
          <mxGeometry x="1" width="20" height="20" relative="1" as="geometry">
            <mxPoint x="-27" y="7" as="offset" />
          </mxGeometry>
        </mxCell>
        <mxCell id="6ug0FFORpO-GTMWJlnLh-29" value="" style="rounded=0;orthogonalLoop=1;jettySize=auto;html=1;endArrow=halfCircle;endFill=0;endSize=6;strokeWidth=1;sketch=0;exitX=1;exitY=0.5;exitDx=0;exitDy=0;" parent="1" source="6ug0FFORpO-GTMWJlnLh-24" target="6ug0FFORpO-GTMWJlnLh-31" edge="1">
          <mxGeometry relative="1" as="geometry">
            <mxPoint x="1377" y="-890" as="sourcePoint" />
          </mxGeometry>
        </mxCell>
        <mxCell id="6ug0FFORpO-GTMWJlnLh-30" value="" style="rounded=0;orthogonalLoop=1;jettySize=auto;html=1;endArrow=oval;endFill=0;sketch=0;sourcePerimeterSpacing=0;targetPerimeterSpacing=0;endSize=10;exitX=0;exitY=0.5;exitDx=0;exitDy=0;" parent="1" source="6ug0FFORpO-GTMWJlnLh-26" target="6ug0FFORpO-GTMWJlnLh-31" edge="1">
          <mxGeometry relative="1" as="geometry">
            <mxPoint x="1378" y="-825" as="sourcePoint" />
          </mxGeometry>
        </mxCell>
        <mxCell id="6ug0FFORpO-GTMWJlnLh-31" value="" style="ellipse;whiteSpace=wrap;html=1;align=center;aspect=fixed;fillColor=none;strokeColor=none;resizable=0;perimeter=centerPerimeter;rotatable=0;allowArrows=0;points=[];outlineConnect=1;" parent="1" vertex="1">
          <mxGeometry x="1397" y="-830" width="10" height="10" as="geometry" />
        </mxCell>
        <mxCell id="6ug0FFORpO-GTMWJlnLh-32" value="JpaRepository" style="text;html=1;align=center;verticalAlign=middle;whiteSpace=wrap;rounded=0;" parent="1" vertex="1">
          <mxGeometry x="1362" y="-869" width="80" height="30" as="geometry" />
        </mxCell>
        <mxCell id="6ug0FFORpO-GTMWJlnLh-36" value="powiadomienie" style="text;html=1;align=center;verticalAlign=middle;whiteSpace=wrap;rounded=0;" parent="1" vertex="1">
          <mxGeometry x="1270" y="-730" width="80" height="30" as="geometry" />
        </mxCell>
      </root>
    </mxGraphModel>
  </diagram>
</mxfile>
